<svg xmlns="http://www.w3.org/2000/svg" width="24" height="24" viewBox="0 0 24 24" fill="none">
  <path fill-rule="evenodd" clip-rule="evenodd" d="M12 0C5.37 0 0 5.37 0 12C0 17.3 3.438 21.8 8.205 23.54C8.805 23.64 9.025 23.305 9.025 23.015C9.025 22.75 9.015 22.065 9.01 21.095C5.672 21.755 4.968 19.55 4.968 19.55C4.454 18.195 3.75 17.82 3.75 17.82C2.812 17.175 3.822 17.19 3.822 17.19C4.857 17.27 5.39 18.265 5.39 18.265C6.307 19.795 7.847 19.335 8.465 19.05C8.565 18.35 8.83 17.86 9.125 17.6C6.652 17.35 4.07 16.3 4.07 11.67C4.07 10.34 4.54 9.275 5.31 8.46C5.19 8.205 4.8 7.175 5.42 5.53C5.42 5.53 6.405 5.255 8.995 6.82C9.95 6.55 10.96 6.415 11.975 6.41C12.99 6.415 14.005 6.55 14.96 6.82C17.55 5.255 18.535 5.53 18.535 5.53C19.155 7.175 18.765 8.205 18.645 8.46C19.415 9.275 19.885 10.34 19.885 11.67C19.885 16.32 17.29 17.345 14.81 17.59C15.2 17.92 15.555 18.565 15.555 19.53C15.555 21.07 15.545 22.33 15.545 23.015C15.545 23.305 15.765 23.645 16.375 23.535C21.152 21.79 24.58 17.295 24.58 12C24.58 5.37 19.63 0 12 0Z" fill="white"/>
</svg>
